<?xml version="1.0" encoding="UTF-8"?>
<svg viewBox="0 0 128 128" xmlns="http://www.w3.org/2000/svg" xmlns:xlink="http://www.w3.org/1999/xlink">
 <defs>
  <clipPath id="b">
   <path id="a" d="m54.787 10.649l0.76 0.16c8.84-2.94 28.68 8.64 24.26 18.96-1.12 1.62-0.93 4.5 0.42 6.31l-24.81 24.82c-1.39-1.39-4.48-1.36-5.9 0l-41.03 39.38c-3.74 3.59-0.8 6.64 0.78 8.25l7.36 7.36c1.61 1.6 5.86 3.76 8.88 0.56l38.72-40.81c1.35-1.42 1.36-4.47 0-5.87 0 0 0.010002-0.020004 0-0.020004l24.91-24.9c2.63 2.37 5.1138 2.5748 7.47 1.93 4.5506-1.2454 7.0872 3.2066 9.81 6.46l-1.23 1.21c-1.82 1.84-1.65 4.94 0.39 6.98s5.15 2.21 6.97 0.39l8.14-8.13c1.82-1.84 1.65-4.94-0.39999-6.97-1.84-1.85-4.51-2.09-6.37-0.77-5.58-6.26-2.65-7.2-10.01-15.35l-13.79-14.09c-9.93-9.74-22.83-9.73-35.33-5.86z"/>
  </clipPath>
 </defs>
/* Specular Highlighting */ .low-specularity{opacity:0.25;} .specularity{opacity:0.5;} .high-specularity{opacity:0.75;} .full-specularity{opacity:1;}  /* Shading */ .low-shade{opacity:0.25;} .shade{opacity:0.5;} .high-shade{opacity:0.75;} .full-shade{opacity:1;}  /* Tango palette fill/stroke */ .black{fill:#000;} .aluminium1{fill:#eeeeec;} .aluminium2{fill:#d3d7cf;} .aluminium6{fill:#2e3436;} .chocolate3{fill:#8f5902;} .chocolate2{fill:#c17d11;} .aluminium4{fill:#888a85;}  /* Shadows: Back-Shadows &amp; Base Shadows */ .base-shadow{opacity:0.4;} .outline-big{stroke:black;stroke-width:8;opacity:0.25;stroke-linejoin:round;} .outline-small{stroke:black;stroke-width:4;opacity:0.5;stroke-linejoin:round;} .stroke-highlight{fill:none;stroke:white;stroke-opacity:0.2;stroke-width:4;stroke-linejoin:round;}
 <g fill="#bfbfbf" stroke-width="0">
  <use class="outline-big" x="-1.013193" y="-1.350924" width="128" height="128" stroke-linejoin="round" xlink:href="#a"/>
  <use class="outline-small stroke-aluminium5" x="-1.013193" y="-1.350924" width="128" height="128" stroke-linejoin="round" xlink:href="#a"/>
  <path class="aluminium2" d="m81.907 34.399l-29.45 29.45 8.83 8.83 29.45-29.44-8.83-8.84z"/>
  <path class="specularity" d="m87.917 40.409l-29.45 29.44 2.82 2.83 29.45-29.44-2.82-2.83z" opacity=".5"/>
  <path d="m85.447 35.689l-29.33 29.33 3.79 3.79 28.58-30.08-3.04-3.04z"/>
  <path class="aluminium6" d="m54.787 10.649l0.76 0.16c8.84-2.94 28.68 8.64 24.26 18.96-1.12 1.62-0.93 4.5 0.42 6.31l8.91 8.77c2.63 2.37 5.11 2.57 7.47 1.93 4.55-1.23 7.08 3.2 9.81 6.46l-1.23 1.21c-1.82 1.84-1.65 4.94 0.39 6.98s5.15 2.21 6.97 0.39l8.14-8.13c1.82-1.84 1.65-4.94-0.39999-6.97-1.84-1.85-4.51-2.09-6.37-0.77-5.58-6.26-2.65-7.2-10.01-15.35l-13.79-14.09c-9.93-9.74-22.83-9.73-35.33-5.86z"/>
  <path class="specularity" d="m113.92 45.949c-5.58-6.26-2.65-7.2-10.01-15.35l-13.79-14.09c-5.69-5.58-12.36-7.96-19.36-8.26l41.13 41.53 2.9753-2.73-0.9454-1.1z" opacity=".5"/>
  <path class="low-specularity" d="m80.437 26.649c0.050003 1-0.17934 2-0.64999 3.12-1.1 1.62-0.91 4.5 0.44 6.31l8.91 8.77c2.63 2.37 5.11 2.57 7.47 1.93 1.08-0.33 2.06-0.27 2.98 0 2.8 0.77-19.16-20.55-19.15-20.23v0.1z" opacity=".5"/>
  <path d="m55.417 60.899c-1.39-1.39-4.48-1.36-5.9 0l-41.03 39.38c-3.74 3.59-0.82 6.64 0.78 8.25l7.36 7.36c1.61 1.6 5.86 3.76 8.88 0.56l38.72-40.81c1.35-1.42 1.36-4.47 0-5.87 0 0 0.010002-0.020004 0-0.020004l-8.81-8.85z"/>
  <path class="low-shade" d="m9.2568 108.52l7.36 7.37c1.61 1.6 5.73 3.89 8.75 0.71l38.87-40.97c1.35-1.43 1.39-4.5 0-5.88l-8.83-8.84-46.15 47.61z" opacity=".5"/>
  <path class="specularity" d="m50.187 64.349l-38.88 38.04c-1.62 1.56-1.07 3.75 0.1 4.89l4.13 3.97 42.37-43.6-3.92-3.68c-0.84-0.8-2.8-0.57-3.8 0.38z" opacity=".5"/>
  <use class="stroke-highlight" x="-1.013193" y="-1.350924" width="128" height="128" clip-path="url(#b)" stroke-linejoin="round" stroke-opacity=".2" xlink:href="#a"/>
  <path d="m119.44 47.909c1.51 1.44 1.8 3.44-0.28 5.36l-3.87 3.63c-2.08 1.95-7.52-3.25-5.45-5.19l3.88-3.63c2.07-1.95 4.21-1.61 5.72-0.17z"/>
 </g>
</svg>
